<?xml version="1.0" encoding="UTF-8" standalone="no"?><!DOCTYPE svg PUBLIC "-//W3C//DTD SVG 1.1//EN" "http://www.w3.org/Graphics/SVG/1.1/DTD/svg11.dtd"><svg width="100%" height="100%" viewBox="0 0 2459 463" version="1.1" xmlns="http://www.w3.org/2000/svg" xmlns:xlink="http://www.w3.org/1999/xlink" xml:space="preserve" xmlns:serif="http://www.serif.com/" style="fill-rule:evenodd;clip-rule:evenodd;stroke-linejoin:round;stroke-miterlimit:2;"><g><path d="M1906.68,-0l-1782.34,-0l-124.343,462.578l1782.34,0l124.343,-462.578Z" style="fill:#0c4a6e;"/><path d="M243.133,337.425c-13.44,0 -25.44,-3.264 -36,-9.792c-10.56,-6.528 -18.912,-15.456 -25.056,-26.784c-6.144,-11.328 -9.216,-24.192 -9.216,-38.592c0,-14.4 3.072,-27.216 9.216,-38.448c6.144,-11.232 14.496,-20.064 25.056,-26.496c10.56,-6.432 22.56,-9.648 36,-9.648c10.752,0 20.16,2.016 28.224,6.048c8.064,4.032 14.592,9.696 19.584,16.992l0,-84.096l36.864,0l0,207.36l-32.832,0l-4.032,-20.448c-4.608,6.336 -10.704,11.904 -18.288,16.704c-7.584,4.8 -17.424,7.2 -29.52,7.2Zm7.776,-32.256c11.904,0 21.648,-3.984 29.232,-11.952c7.584,-7.968 11.376,-18.192 11.376,-30.672c0,-12.48 -3.792,-22.704 -11.376,-30.672c-7.584,-7.968 -17.328,-11.952 -29.232,-11.952c-11.712,0 -21.408,3.936 -29.088,11.808c-7.68,7.872 -11.52,18.048 -11.52,30.528c0,12.48 3.84,22.752 11.52,30.816c7.68,8.064 17.376,12.096 29.088,12.096Z" style="fill:#fff;fill-rule:nonzero;"/><path d="M414.493,337.425c-12.288,0 -22.368,-1.968 -30.24,-5.904c-7.872,-3.936 -13.728,-9.168 -17.568,-15.696c-3.84,-6.528 -5.76,-13.728 -5.76,-21.6c0,-13.248 5.184,-24 15.552,-32.256c10.368,-8.256 25.92,-12.384 46.656,-12.384l36.288,0l0,-3.456c0,-9.792 -2.784,-16.992 -8.352,-21.6c-5.568,-4.608 -12.48,-6.912 -20.736,-6.912c-7.488,0 -14.016,1.776 -19.584,5.328c-5.568,3.552 -9.024,8.784 -10.368,15.696l-36,0c0.96,-10.368 4.464,-19.392 10.512,-27.072c6.048,-7.68 13.872,-13.584 23.472,-17.712c9.6,-4.128 20.352,-6.192 32.256,-6.192c20.352,0 36.384,5.088 48.096,15.264c11.712,10.176 17.568,24.576 17.568,43.2l0,87.84l-31.392,0l-3.456,-23.04c-4.224,7.68 -10.128,14.016 -17.712,19.008c-7.584,4.992 -17.328,7.488 -29.232,7.488Zm8.352,-28.8c10.56,0 18.768,-3.456 24.624,-10.368c5.856,-6.912 9.552,-15.456 11.088,-25.632l-31.392,0c-9.792,0 -16.8,1.776 -21.024,5.328c-4.224,3.552 -6.336,7.92 -6.336,13.104c0,5.568 2.112,9.888 6.336,12.96c4.224,3.072 9.792,4.608 16.704,4.608Z" style="fill:#fff;fill-rule:nonzero;"/><path d="M531.421,333.969l0,-142.848l32.544,0l2.88,24.192c4.416,-8.448 10.8,-15.168 19.152,-20.16c8.352,-4.992 18.192,-7.488 29.52,-7.488c17.664,0 31.392,5.568 41.184,16.704c9.792,11.136 14.688,27.456 14.688,48.96l0,80.64l-36.864,0l0,-77.184c0,-12.288 -2.496,-21.696 -7.488,-28.224c-4.992,-6.528 -12.768,-9.792 -23.328,-9.792c-10.368,0 -18.864,3.648 -25.488,10.944c-6.624,7.296 -9.936,17.472 -9.936,30.528l0,73.728l-36.864,0Z" style="fill:#fff;fill-rule:nonzero;"/><path d="M726.397,168.945c-6.72,0 -12.24,-2.016 -16.56,-6.048c-4.32,-4.032 -6.48,-9.12 -6.48,-15.264c0,-6.144 2.16,-11.184 6.48,-15.12c4.32,-3.936 9.84,-5.904 16.56,-5.904c6.72,0 12.24,1.968 16.56,5.904c4.32,3.936 6.48,8.976 6.48,15.12c0,6.144 -2.16,11.232 -6.48,15.264c-4.32,4.032 -9.84,6.048 -16.56,6.048Zm-18.432,165.024l0,-142.848l36.864,0l0,142.848l-36.864,0Z" style="fill:#fff;fill-rule:nonzero;"/><path d="M852.829,337.425c-14.4,0 -27.168,-3.072 -38.304,-9.216c-11.136,-6.144 -19.872,-14.784 -26.208,-25.92c-6.336,-11.136 -9.504,-24 -9.504,-38.592c0,-14.784 3.12,-27.936 9.36,-39.456c6.24,-11.52 14.88,-20.496 25.92,-26.928c11.04,-6.432 24.048,-9.648 39.024,-9.648c14.016,0 26.4,3.072 37.152,9.216c10.752,6.144 19.152,14.544 25.2,25.2c6.048,10.656 9.072,22.512 9.072,35.568c0,2.112 -0.048,4.32 -0.144,6.624c-0.096,2.304 -0.24,4.704 -0.432,7.2l-108.576,0c0.768,11.136 4.656,19.872 11.664,26.208c7.008,6.336 15.504,9.504 25.488,9.504c7.488,0 13.776,-1.68 18.864,-5.04c5.088,-3.36 8.88,-7.728 11.376,-13.104l37.44,0c-2.688,9.024 -7.152,17.232 -13.392,24.624c-6.24,7.392 -13.92,13.2 -23.04,17.424c-9.12,4.224 -19.44,6.336 -30.96,6.336Zm0.288,-119.808c-9.024,0 -16.992,2.544 -23.904,7.632c-6.912,5.088 -11.328,12.816 -13.248,23.184l71.136,0c-0.576,-9.408 -4.032,-16.896 -10.368,-22.464c-6.336,-5.568 -14.208,-8.352 -23.616,-8.352Z" style="fill:#fff;fill-rule:nonzero;"/><rect x="955.645" y="126.609" width="36.864" height="207.36" style="fill:#fff;fill-rule:nonzero;"/><path d="M1114.91,337.425c-10.752,0 -20.16,-2.016 -28.224,-6.048c-8.064,-4.032 -14.592,-9.696 -19.584,-16.992l-4.032,19.584l-32.832,0l0,-207.36l36.864,0l0,84.96c4.608,-6.336 10.704,-11.904 18.288,-16.704c7.584,-4.8 17.424,-7.2 29.52,-7.2c13.44,0 25.44,3.264 36,9.792c10.56,6.528 18.912,15.456 25.056,26.784c6.144,11.328 9.216,24.192 9.216,38.592c0,14.4 -3.072,27.216 -9.216,38.448c-6.144,11.232 -14.496,20.064 -25.056,26.496c-10.56,6.432 -22.56,9.648 -36,9.648Zm-7.776,-32.256c11.712,0 21.408,-3.936 29.088,-11.808c7.68,-7.872 11.52,-18.048 11.52,-30.528c0,-12.48 -3.84,-22.752 -11.52,-30.816c-7.68,-8.064 -17.376,-12.096 -29.088,-12.096c-11.904,0 -21.648,3.984 -29.232,11.952c-7.584,7.968 -11.376,18.192 -11.376,30.672c0,12.48 3.792,22.704 11.376,30.672c7.584,7.968 17.328,11.952 29.232,11.952Z" style="fill:#fff;fill-rule:nonzero;"/><path d="M1237.88,168.945c-6.72,0 -12.24,-2.016 -16.56,-6.048c-4.32,-4.032 -6.48,-9.12 -6.48,-15.264c0,-6.144 2.16,-11.184 6.48,-15.12c4.32,-3.936 9.84,-5.904 16.56,-5.904c6.72,0 12.24,1.968 16.56,5.904c4.32,3.936 6.48,8.976 6.48,15.12c0,6.144 -2.16,11.232 -6.48,15.264c-4.32,4.032 -9.84,6.048 -16.56,6.048Zm-18.432,165.024l0,-142.848l36.864,0l0,142.848l-36.864,0Z" style="fill:#fff;fill-rule:nonzero;"/><path d="M1294.91,333.969l0,-142.848l32.832,0l3.456,26.784c5.184,-9.216 12.24,-16.56 21.168,-22.032c8.928,-5.472 19.44,-8.208 31.536,-8.208l0,38.88l-10.368,0c-8.064,0 -15.264,1.248 -21.6,3.744c-6.336,2.496 -11.28,6.816 -14.832,12.96c-3.552,6.144 -5.328,14.688 -5.328,25.632l0,65.088l-36.864,0Z" style="fill:#fff;fill-rule:nonzero;"/><path d="M1476.35,337.425c-14.592,0 -27.456,-3.168 -38.592,-9.504c-11.136,-6.336 -19.92,-15.168 -26.352,-26.496c-6.432,-11.328 -9.648,-24.288 -9.648,-38.88c0,-14.592 3.216,-27.552 9.648,-38.88c6.432,-11.328 15.216,-20.16 26.352,-26.496c11.136,-6.336 24,-9.504 38.592,-9.504c18.24,0 33.6,4.752 46.08,14.256c12.48,9.504 20.448,22.608 23.904,39.312l-38.88,0c-1.92,-6.912 -5.712,-12.336 -11.376,-16.272c-5.664,-3.936 -12.336,-5.904 -20.016,-5.904c-10.176,0 -18.816,3.84 -25.92,11.52c-7.104,7.68 -10.656,18.336 -10.656,31.968c0,13.632 3.552,24.288 10.656,31.968c7.104,7.68 15.744,11.52 25.92,11.52c7.68,0 14.352,-1.92 20.016,-5.76c5.664,-3.84 9.456,-9.312 11.376,-16.416l38.88,0c-3.456,16.128 -11.424,29.088 -23.904,38.88c-12.48,9.792 -27.84,14.688 -46.08,14.688Z" style="fill:#fff;fill-rule:nonzero;"/><path d="M1579.16,333.969l0,-207.36l36.864,0l0,86.4c4.8,-7.872 11.28,-14.064 19.44,-18.576c8.16,-4.512 17.52,-6.768 28.08,-6.768c17.664,0 31.344,5.568 41.04,16.704c9.696,11.136 14.544,27.456 14.544,48.96l0,80.64l-36.576,0l0,-77.184c0,-12.288 -2.448,-21.696 -7.344,-28.224c-4.896,-6.528 -12.624,-9.792 -23.184,-9.792c-10.368,0 -18.96,3.648 -25.776,10.944c-6.816,7.296 -10.224,17.472 -10.224,30.528l0,73.728l-36.864,0Z" style="fill:#fff;fill-rule:nonzero;"/><path d="M1914.72,335.985c-6.72,0 -12.24,-2.112 -16.56,-6.336c-4.32,-4.224 -6.48,-9.312 -6.48,-15.264c0,-6.144 2.16,-11.328 6.48,-15.552c4.32,-4.224 9.84,-6.336 16.56,-6.336c6.72,0 12.24,2.112 16.56,6.336c4.32,4.224 6.48,9.408 6.48,15.552c0,5.952 -2.16,11.04 -6.48,15.264c-4.32,4.224 -9.84,6.336 -16.56,6.336Z" style="fill:#1a1a1a;fill-rule:nonzero;"/><path d="M2033.66,337.425c-13.44,0 -25.44,-3.264 -36,-9.792c-10.56,-6.528 -18.912,-15.456 -25.056,-26.784c-6.144,-11.328 -9.216,-24.192 -9.216,-38.592c0,-14.4 3.072,-27.216 9.216,-38.448c6.144,-11.232 14.496,-20.064 25.056,-26.496c10.56,-6.432 22.56,-9.648 36,-9.648c10.752,0 20.16,2.016 28.224,6.048c8.064,4.032 14.592,9.696 19.584,16.992l0,-84.096l36.864,0l0,207.36l-32.832,0l-4.032,-20.448c-4.608,6.336 -10.704,11.904 -18.288,16.704c-7.584,4.8 -17.424,7.2 -29.52,7.2Zm7.776,-32.256c11.904,0 21.648,-3.984 29.232,-11.952c7.584,-7.968 11.376,-18.192 11.376,-30.672c0,-12.48 -3.792,-22.704 -11.376,-30.672c-7.584,-7.968 -17.328,-11.952 -29.232,-11.952c-11.712,0 -21.408,3.936 -29.088,11.808c-7.68,7.872 -11.52,18.048 -11.52,30.528c0,12.48 3.84,22.752 11.52,30.816c7.68,8.064 17.376,12.096 29.088,12.096Z" style="fill:#1a1a1a;fill-rule:nonzero;"/><path d="M2225.18,337.425c-14.4,0 -27.168,-3.072 -38.304,-9.216c-11.136,-6.144 -19.872,-14.784 -26.208,-25.92c-6.336,-11.136 -9.504,-24 -9.504,-38.592c0,-14.784 3.12,-27.936 9.36,-39.456c6.24,-11.52 14.88,-20.496 25.92,-26.928c11.04,-6.432 24.048,-9.648 39.024,-9.648c14.016,0 26.4,3.072 37.152,9.216c10.752,6.144 19.152,14.544 25.2,25.2c6.048,10.656 9.072,22.512 9.072,35.568c0,2.112 -0.048,4.32 -0.144,6.624c-0.096,2.304 -0.24,4.704 -0.432,7.2l-108.576,0c0.768,11.136 4.656,19.872 11.664,26.208c7.008,6.336 15.504,9.504 25.488,9.504c7.488,0 13.776,-1.68 18.864,-5.04c5.088,-3.36 8.88,-7.728 11.376,-13.104l37.44,0c-2.688,9.024 -7.152,17.232 -13.392,24.624c-6.24,7.392 -13.92,13.2 -23.04,17.424c-9.12,4.224 -19.44,6.336 -30.96,6.336Zm0.288,-119.808c-9.024,0 -16.992,2.544 -23.904,7.632c-6.912,5.088 -11.328,12.816 -13.248,23.184l71.136,0c-0.576,-9.408 -4.032,-16.896 -10.368,-22.464c-6.336,-5.568 -14.208,-8.352 -23.616,-8.352Z" style="fill:#1a1a1a;fill-rule:nonzero;"/><path d="M2360.83,333.969l-52.416,-142.848l38.592,0l36.288,108l36.288,-108l38.592,0l-52.704,142.848l-44.64,0Z" style="fill:#1a1a1a;fill-rule:nonzero;"/></g></svg>