<?xml version="1.0" encoding="UTF-8" standalone="no"?><!DOCTYPE svg PUBLIC "-//W3C//DTD SVG 1.1//EN" "http://www.w3.org/Graphics/SVG/1.1/DTD/svg11.dtd"><svg width="100%" height="100%" viewBox="0 0 264 264" version="1.1" xmlns="http://www.w3.org/2000/svg" xmlns:xlink="http://www.w3.org/1999/xlink" xml:space="preserve" xmlns:serif="http://www.serif.com/" style="fill-rule:evenodd;clip-rule:evenodd;stroke-linejoin:round;stroke-miterlimit:2;"><g><circle cx="131.995" cy="131.995" r="131.995" style="fill:#fff;"/><path d="M241.605,192.288c-7.974,2.028 -12.906,0.089 -17.332,-6.556l-31.472,-43.543l-4.549,-6.028l-36.753,49.715c-4.2,5.981 -8.605,8.584 -16.442,6.467l47.064,-63.177l-43.817,-57.066c7.536,-1.466 12.743,-0.719 17.367,6.029l32.643,44.084l32.883,-43.844c4.213,-5.981 8.742,-8.255 16.305,-6.049l-16.99,22.525l-23.018,29.971c-2.74,3.426 -2.364,5.768 0.158,9.077l43.953,58.395Zm-219.166,-64.177l3.85,-18.935c10.482,-37.473 53.435,-53.044 83.058,-29.889c17.311,13.619 21.613,32.883 20.757,54.462l-97.581,0c-1.466,38.844 26.492,62.287 62.136,50.325c12.502,-4.199 19.867,-13.989 23.552,-26.238c1.871,-6.138 4.967,-7.097 10.735,-5.343c-2.945,15.318 -9.591,28.115 -23.634,36.123c-20.984,11.989 -50.935,8.112 -66.692,-8.549c-9.385,-9.667 -13.262,-21.915 -15.003,-35.014c-0.274,-2.165 -0.822,-4.227 -1.233,-6.303c0.037,-3.544 0.055,-7.088 0.055,-10.632l0,-0.007Zm10.262,-2.603l88.182,0c-0.575,-28.088 -18.065,-48.037 -41.967,-48.208c-26.238,-0.205 -45.077,19.271 -46.215,48.208Z" style="fill-rule:nonzero;"/></g></svg>