<?xml version="1.0" encoding="UTF-8" standalone="no"?>
<!DOCTYPE svg PUBLIC "-//W3C//DTD SVG 1.1//EN" "http://www.w3.org/Graphics/SVG/1.1/DTD/svg11.dtd">
<svg width="100%" height="100%" viewBox="0 0 96 132" version="1.1" xmlns="http://www.w3.org/2000/svg" xmlns:xlink="http://www.w3.org/1999/xlink" xml:space="preserve" xmlns:serif="http://www.serif.com/" style="fill-rule:evenodd;clip-rule:evenodd;stroke-linejoin:round;stroke-miterlimit:2;">
    <g transform="matrix(1,0,0,1,-24,-6)">
        <path d="M24,111L69.702,25.308C70.665,23.502 73.269,23.535 74.184,25.368L90,57L24,111Z" style="fill:rgb(255,143,0);fill-rule:nonzero;"/>
        <path d="M24,110.976L40.638,8.379C41.073,5.694 44.679,5.112 45.939,7.524L78,68.976L24,110.976Z" style="fill:rgb(255,160,0);fill-rule:nonzero;"/>
        <path d="M24.024,110.958L24.624,110.487L77.211,67.464L62.379,39.036L24.024,110.958Z" style="fill:rgb(255,111,0);fill-rule:nonzero;"/>
        <path d="M24,111L103.998,33.861C105.675,32.244 108.474,33.198 108.816,35.502L120,111L75,137.229C73.173,138.255 70.944,138.255 69.117,137.229L24,111Z" style="fill:rgb(255,196,0);fill-rule:nonzero;"/>
    </g>
</svg>
