<?xml version="1.0" encoding="UTF-8" standalone="no"?>
<!DOCTYPE svg PUBLIC "-//W3C//DTD SVG 1.1//EN" "http://www.w3.org/Graphics/SVG/1.1/DTD/svg11.dtd">
<svg width="100%" height="100%" viewBox="0 0 114 114" version="1.1" xmlns="http://www.w3.org/2000/svg" xmlns:xlink="http://www.w3.org/1999/xlink" xml:space="preserve" xmlns:serif="http://www.serif.com/" style="fill-rule:evenodd;clip-rule:evenodd;stroke-linejoin:round;stroke-miterlimit:2;">
    <g transform="matrix(1,0,0,1,-15,-15)">
        <path d="M126.6,66.3L77.7,17.4C76.2,15.9 74.1,15 72,15C69.9,15 67.8,15.9 66.3,17.4L55.8,27.9L68.1,40.2C69.3,39.6 70.5,39.3 72,39.3C77.1,39.3 81,43.2 81,48.3C81,49.8 80.7,51 80.1,52.2L92.1,64.2C93.3,63.6 94.5,63.3 96,63.3C101.1,63.3 105,67.2 105,72.3C105,77.4 101.1,81.3 96,81.3C90.9,81.3 87,77.4 87,72.3C87,70.8 87.3,69.6 87.9,68.4L75.9,56.4C75.6,56.4 75.3,56.7 75,56.7L75,87.9C78.6,89.1 81,92.4 81,96.3C81,101.4 77.1,105.3 72,105.3C66.9,105.3 63,101.4 63,96.3C63,92.4 65.4,89.1 69,87.9L69,56.4C65.4,55.2 63,51.9 63,48C63,46.5 63.3,45.3 63.9,44.1L51.6,31.8L17.4,66.3C15.9,67.8 15,69.9 15,72C15,74.1 15.9,76.2 17.4,77.7L66.3,126.6C67.8,128.1 69.9,129 72,129C74.1,129 76.2,128.1 77.7,126.6L126.6,77.7C128.1,76.2 129,74.1 129,72C129,69.9 128.1,67.8 126.6,66.3Z" style="fill:rgb(244,81,30);fill-rule:nonzero;"/>
    </g>
</svg>
