<?xml version="1.0" encoding="UTF-8" standalone="no"?>
<!DOCTYPE svg PUBLIC "-//W3C//DTD SVG 1.1//EN" "http://www.w3.org/Graphics/SVG/1.1/DTD/svg11.dtd">
<svg width="100%" height="100%" viewBox="0 0 116 114" version="1.1" xmlns="http://www.w3.org/2000/svg" xmlns:xlink="http://www.w3.org/1999/xlink" xml:space="preserve" xmlns:serif="http://www.serif.com/" style="fill-rule:evenodd;clip-rule:evenodd;stroke-linejoin:round;stroke-miterlimit:2;">
    <g transform="matrix(1,0,0,1,-14.4,-14.4)">
        <path d="M72,14.4C40.19,14.4 14.4,40.19 14.4,72C14.4,98.99 32.986,121.574 58.042,127.824C57.773,127.046 57.6,126.144 57.6,125.026L57.6,115.181L50.362,115.181C46.421,115.181 42.917,113.486 41.218,110.338C39.331,106.838 39.005,101.486 34.33,98.213C32.942,97.123 33.998,95.88 35.597,96.048C38.549,96.883 40.997,98.909 43.301,101.914C45.595,104.923 46.675,105.605 50.962,105.605C53.04,105.605 56.15,105.485 59.078,105.024C60.653,101.026 63.374,97.344 66.701,95.606C47.52,93.634 38.366,84.091 38.366,71.136C38.366,65.558 40.742,60.163 44.779,55.618C43.454,51.106 41.789,41.904 45.288,38.4C53.918,38.4 59.136,43.997 60.389,45.509C64.69,44.035 69.413,43.2 74.376,43.2C79.349,43.2 84.091,44.035 88.402,45.518C89.64,44.016 94.862,38.4 103.512,38.4C107.026,41.909 105.341,51.149 104.002,55.651C108.014,60.187 110.376,65.568 110.376,71.136C110.376,84.082 101.237,93.619 82.085,95.602C87.355,98.352 91.2,106.08 91.2,111.902L91.2,125.026C91.2,125.525 91.09,125.885 91.032,126.312C113.477,118.445 129.6,97.133 129.6,72C129.6,40.19 103.81,14.4 72,14.4Z" style="fill-rule:nonzero;"/>
    </g>
</svg>
