<?xml version="1.0" encoding="UTF-8" standalone="no"?>
<!DOCTYPE svg PUBLIC "-//W3C//DTD SVG 1.1//EN" "http://www.w3.org/Graphics/SVG/1.1/DTD/svg11.dtd">
<svg width="100%" height="100%" viewBox="0 0 114 129" version="1.1" xmlns="http://www.w3.org/2000/svg" xmlns:xlink="http://www.w3.org/1999/xlink" xml:space="preserve" xmlns:serif="http://www.serif.com/" style="fill-rule:evenodd;clip-rule:evenodd;stroke-linejoin:round;stroke-miterlimit:2;">
    <g transform="matrix(1,0,0,1,-15,-7.75)">
        <path d="M72.021,136.257C70.299,136.257 68.592,135.807 67.083,134.937L51.363,125.628C49.014,124.314 50.16,123.849 50.934,123.582C54.066,122.487 54.699,122.238 58.041,120.339C58.392,120.138 58.851,120.21 59.211,120.423L71.289,127.59C71.724,127.827 72.345,127.827 72.747,127.59L119.838,100.407C120.273,100.158 120.558,99.654 120.558,99.135L120.558,44.796C120.558,44.253 120.276,43.77 119.829,43.5L72.759,16.338C72.324,16.08 71.745,16.08 71.31,16.338L24.246,43.497C23.79,43.755 23.499,44.262 23.499,44.781L23.499,99.123C23.499,99.642 23.781,100.137 24.231,100.383L37.128,107.832C44.13,111.333 48.408,107.208 48.408,103.059L48.408,49.428C48.408,48.663 49.008,48.072 49.776,48.072L55.74,48.072C56.484,48.072 57.096,48.66 57.096,49.428L57.096,103.086C57.096,112.422 52.005,117.786 43.152,117.786C40.428,117.786 38.283,117.786 32.295,114.84L19.941,107.721C16.887,105.951 15,102.648 15,99.126L15,44.784C15,41.247 16.887,37.947 19.938,36.201L67.08,9.006C70.062,7.32 74.022,7.32 76.983,9.006L124.065,36.213C127.101,37.968 129,41.259 129,44.796L129,99.138C129,102.663 127.101,105.951 124.062,107.721L76.98,134.913C75.471,135.786 73.761,136.233 72.018,136.233" style="fill:rgb(33,163,102);fill-rule:nonzero;"/>
    </g>
    <g transform="matrix(1,0,0,1,-15,-7.75)">
        <path d="M86.568,98.811C65.964,98.811 61.644,89.352 61.644,81.42C61.644,80.667 62.253,80.064 63.009,80.064L69.093,80.064C69.765,80.064 70.332,80.553 70.437,81.216C71.355,87.414 74.091,90.54 86.55,90.54C96.474,90.54 100.695,88.299 100.695,83.034C100.695,80.004 99.492,77.754 84.075,76.245C71.178,74.973 63.21,72.132 63.21,61.818C63.21,52.317 71.226,46.659 84.651,46.659C99.729,46.659 107.202,51.894 108.144,63.138C108.18,63.528 108.039,63.903 107.778,64.188C107.52,64.458 107.154,64.623 106.776,64.623L100.659,64.623C100.023,64.623 99.468,64.176 99.339,63.561C97.866,57.042 94.305,54.957 84.627,54.957C73.794,54.957 72.534,58.728 72.534,61.557C72.534,64.986 74.019,65.988 88.635,67.923C103.11,69.843 109.983,72.555 109.983,82.728C109.983,92.982 101.424,98.865 86.502,98.865" style="fill:rgb(33,163,102);fill-rule:nonzero;"/>
    </g>
</svg>
