<?xml version="1.0" encoding="UTF-8" standalone="no"?>
<!DOCTYPE svg PUBLIC "-//W3C//DTD SVG 1.1//EN" "http://www.w3.org/Graphics/SVG/1.1/DTD/svg11.dtd">
<svg width="100%" height="100%" viewBox="0 0 144 58" version="1.1" xmlns="http://www.w3.org/2000/svg" xmlns:xlink="http://www.w3.org/1999/xlink" xml:space="preserve" xmlns:serif="http://www.serif.com/" style="fill-rule:evenodd;clip-rule:evenodd;stroke-linejoin:round;stroke-miterlimit:2;">
    <g transform="matrix(1,0,0,1,-4.26326e-14,-36.0402)">
        <path d="M51.612,57.366L36.891,65.511C36.339,65.814 36,66.378 36,66.987L36,83.286C36,83.895 36.339,84.456 36.891,84.762L51.615,92.913C52.164,93.216 52.845,93.216 53.394,92.913L68.115,84.762C68.661,84.456 69,83.895 69,83.286L69,66.987C69,66.378 68.661,65.817 68.109,65.511L53.391,57.366C53.115,57.213 52.806,57.138 52.5,57.138C52.191,57.138 51.885,57.213 51.609,57.366M127.353,72.039L124.899,73.395C124.806,73.446 124.752,73.539 124.752,73.641L124.752,76.359C124.752,76.461 124.809,76.554 124.899,76.605L127.353,77.964C127.446,78.015 127.557,78.015 127.65,77.964L130.104,76.605C130.194,76.554 130.251,76.461 130.251,76.359L130.251,73.641C130.251,73.539 130.194,73.446 130.101,73.395L127.647,72.039C127.602,72.012 127.551,72 127.5,72C127.449,72 127.398,72.012 127.353,72.039" style="fill:rgb(56,142,60);fill-rule:nonzero;"/>
        <path d="M107.253,40.092L100.086,36.093C99.861,35.967 99.585,35.97 99.363,36.102C99.141,36.234 99.003,36.471 99.003,36.729L99,60.885L92.391,57.228C92.115,57.075 91.806,57 91.5,57C91.194,57 90.885,57.075 90.609,57.228L90.612,57.228L75.891,65.373C75.339,65.676 75,66.24 75,66.846L75,83.145C75,83.754 75.339,84.315 75.891,84.621L90.615,92.772C91.164,93.075 91.845,93.075 92.394,92.772L107.115,84.621C107.661,84.318 108,83.754 108,83.145L108,41.364C108,40.836 107.712,40.35 107.253,40.092ZM98.598,79.374L91.908,83.079C91.659,83.217 91.35,83.217 91.101,83.079L84.408,79.374C84.153,79.236 84,78.978 84,78.702L84,71.292C84,71.016 84.153,70.761 84.405,70.62L91.098,66.918L91.095,66.918C91.221,66.849 91.359,66.816 91.5,66.816C91.641,66.816 91.779,66.852 91.905,66.918L98.595,70.62C98.847,70.761 99,71.019 99,71.295L99,78.705C99,78.978 98.847,79.236 98.598,79.374Z" style="fill:rgb(55,71,79);fill-rule:nonzero;"/>
        <path d="M51.612,57.366L36,83.286C36,83.895 36.339,84.456 36.891,84.762L51.615,92.913C52.164,93.216 52.845,93.216 53.394,92.913L69,66.987C69,66.378 68.661,65.817 68.109,65.511L53.391,57.366C53.115,57.213 52.806,57.138 52.5,57.138C52.191,57.138 51.885,57.213 51.609,57.366" style="fill:rgb(46,125,50);fill-rule:nonzero;"/>
        <path d="M51.612,57.366L36.891,65.511C36.339,65.814 36,66.378 36,66.987L51.612,92.913C52.161,93.216 52.842,93.216 53.391,92.913L68.112,84.762C68.661,84.456 69,83.895 69,83.286L53.391,57.366C53.115,57.213 52.806,57.138 52.5,57.138C52.191,57.138 51.885,57.213 51.609,57.366" style="fill:rgb(76,175,80);fill-rule:nonzero;"/>
        <path d="M143.109,65.373L128.391,57.228C128.115,57.075 127.806,57 127.5,57C127.194,57 126.885,57.075 126.609,57.228L126.612,57.228L111.891,65.373C111.342,65.676 111,66.252 111,66.882L111,83.115C111,83.742 111.342,84.321 111.891,84.624L126.615,92.775C127.167,93.081 127.842,93.081 128.394,92.775L135.183,89.016C135.804,88.671 135.801,87.78 135.177,87.438L120.405,79.377C120.156,79.236 120,78.975 120,78.693L120,71.295C120,71.019 120.15,70.764 120.39,70.632L127.095,66.924L127.092,66.924C127.218,66.855 127.356,66.822 127.497,66.822C127.638,66.822 127.776,66.858 127.902,66.924L134.607,70.635C134.847,70.767 134.997,71.022 134.997,71.298L134.997,77.334C134.997,77.592 135.135,77.832 135.36,77.961C135.585,78.087 135.861,78.087 136.086,77.958L143.28,73.779C143.724,73.521 144,73.044 144,72.528L144,66.888C144,66.255 143.658,65.676 143.109,65.373ZM32.109,65.373L17.391,57.228C17.115,57.075 16.806,57 16.5,57C16.194,57 15.885,57.075 15.609,57.228L15.612,57.228L0.891,65.373C0.342,65.676 0,66.252 0,66.882L0,89.277C0,89.535 0.138,89.775 0.363,89.904C0.588,90.03 0.864,90.03 1.089,89.901L8.283,85.722C8.727,85.464 9,84.987 9,84.471L9,71.292C9,71.016 9.15,70.761 9.39,70.629L16.095,66.921C16.221,66.852 16.359,66.819 16.5,66.819C16.641,66.819 16.779,66.855 16.905,66.921L23.61,70.632C23.85,70.764 24,71.019 24,71.295L24,84.474C24,84.99 24.273,85.467 24.72,85.725L31.914,89.904C32.139,90.033 32.415,90.033 32.64,89.907C32.862,89.775 33,89.535 33,89.277L33,66.885C33,66.255 32.658,65.676 32.109,65.373Z" style="fill:rgb(55,71,79);fill-rule:nonzero;"/>
    </g>
</svg>
