<?xml version="1.0" encoding="UTF-8" standalone="no"?>
<!DOCTYPE svg PUBLIC "-//W3C//DTD SVG 1.1//EN" "http://www.w3.org/Graphics/SVG/1.1/DTD/svg11.dtd">
<svg width="100%" height="100%" viewBox="0 0 144 60" version="1.1" xmlns="http://www.w3.org/2000/svg" xmlns:xlink="http://www.w3.org/1999/xlink" xml:space="preserve" xmlns:serif="http://www.serif.com/" style="fill-rule:evenodd;clip-rule:evenodd;stroke-linejoin:round;stroke-miterlimit:2;">
    <g transform="matrix(1,0,0,1,0,-42)">
        <path d="M0,45L144,45L144,96L72,96L72,105L39,105L39,96L0,96L0,45Z" style="fill:rgb(213,0,0);fill-rule:nonzero;"/>
        <path d="M9,87L24,87L24,63L33,63L33,87L39,87L39,54L9,54L9,87ZM48,54L48,96L63,96L63,87L78,87L78,54L48,54ZM72,78L63,78L63,63L72,63L72,78ZM87,54L87,87L102,87L102,63L111,63L111,87L120,87L120,63L129,63L129,87L135,87L135,54L87,54Z" style="fill:white;fill-rule:nonzero;"/>
    </g>
</svg>
