<?xml version="1.0" encoding="UTF-8" standalone="no"?>
<!DOCTYPE svg PUBLIC "-//W3C//DTD SVG 1.1//EN" "http://www.w3.org/Graphics/SVG/1.1/DTD/svg11.dtd">
<svg width="100%" height="100%" viewBox="0 0 144 87" version="1.1" xmlns="http://www.w3.org/2000/svg" xmlns:xlink="http://www.w3.org/1999/xlink" xml:space="preserve" xmlns:serif="http://www.serif.com/" style="fill-rule:evenodd;clip-rule:evenodd;stroke-linejoin:round;stroke-miterlimit:2;">
    <g transform="matrix(1,0,0,1,0,-28.8)">
        <path d="M72,28.812C52.8,28.812 40.8,38.409 36,57.603C43.2,48.006 51.6,44.409 61.2,46.806C66.678,48.174 70.593,52.149 74.928,56.547C81.984,63.708 90.153,72 108,72C127.2,72 139.2,62.403 144,43.206C136.8,52.803 128.4,56.403 118.8,54.006C113.325,52.638 109.41,48.663 105.075,44.265C98.016,37.101 89.844,28.812 72,28.812ZM36,72C16.8,72 4.8,81.597 0,100.794C7.2,91.197 15.6,87.597 25.2,89.997C30.675,91.368 34.59,95.34 38.925,99.735C45.984,106.899 54.156,115.191 72,115.191C91.2,115.191 103.2,105.594 108,86.397C100.8,95.994 92.4,99.594 82.8,97.194C77.322,95.826 73.407,91.851 69.072,87.456C62.016,80.292 53.847,72 36,72Z" style="fill:rgb(0,172,193);fill-rule:nonzero;"/>
    </g>
</svg>
