<?xml version="1.0" encoding="UTF-8" standalone="no"?><!DOCTYPE svg PUBLIC "-//W3C//DTD SVG 1.1//EN" "http://www.w3.org/Graphics/SVG/1.1/DTD/svg11.dtd"><svg width="100%" height="100%" viewBox="0 0 475 534" version="1.1" xmlns="http://www.w3.org/2000/svg" xmlns:xlink="http://www.w3.org/1999/xlink" xml:space="preserve" xmlns:serif="http://www.serif.com/" style="fill-rule:evenodd;clip-rule:evenodd;stroke-linejoin:round;stroke-miterlimit:2;"><g><path d="M331.163,193.942c-0.251,27.688 -23.1,50.331 -50.79,50.331c-27.689,0 -50.539,-22.643 -50.789,-50.331c-0,-28.058 22.737,-50.796 50.795,-50.796c27.862,0.005 50.786,22.934 50.784,50.796Z" style="fill:#ffc131;fill-rule:nonzero;"/><path d="M144.15,339.384c0,-27.867 22.931,-50.798 50.798,-50.798c27.867,-0 50.798,22.931 50.798,50.798c0,28.058 -22.737,50.795 -50.796,50.795c-28.058,0 -50.796,-22.737 -50.796,-50.795l-0.004,-0Z" style="fill:#24c8db;fill-rule:nonzero;"/><path d="M385.638,356.817c-20.4,13.191 -43.099,22.428 -66.913,27.229c4.972,-14.365 7.503,-29.462 7.488,-44.662c0.002,-5.599 -0.335,-11.193 -1.009,-16.75c10.25,-3.569 20.036,-8.351 29.15,-14.242c22.038,-14.243 39.5,-34.554 50.275,-58.479c7.926,-17.596 12.025,-36.676 12.025,-55.974c-0,-60.945 -40.879,-114.831 -99.57,-131.251c-51.532,-14.401 -106.975,2.811 -141.292,43.862c-2.153,2.576 -4.209,5.231 -6.167,7.959c-25.845,2.874 -51.003,10.181 -74.366,21.6c18.987,-60.805 66.767,-108.504 127.604,-127.388c35.665,-11.081 73.784,-11.623 109.75,-1.562c35.971,10.075 68.279,30.304 93.016,58.266c24.738,27.963 40.888,62.5 46.5,99.429c11.425,75.295 -22.522,150.638 -86.491,191.963Zm-288.067,-185.338l47.542,5.842c1.119,-9.171 3.176,-18.203 6.137,-26.954c-18.847,4.315 -36.941,11.43 -53.679,21.108l0,0.004Z" style="fill:#ffc131;fill-rule:nonzero;"/><path d="M89.35,176.509c20.555,-13.29 43.443,-22.563 67.45,-27.33c-5.544,15.073 -8.371,31.011 -8.35,47.071c-0.002,4.889 0.259,9.773 0.784,14.634c-10.042,3.55 -19.634,8.264 -28.58,14.045c-22.041,14.243 -39.506,34.556 -50.283,58.484c-10.792,23.925 -14.421,50.471 -10.5,76.416c3.921,25.946 15.283,50.213 32.683,69.875c17.4,19.663 40.071,33.871 65.35,40.934c25.28,7.062 52.067,6.687 77.134,-1.092c25.06,-7.784 47.348,-22.639 64.175,-42.775c2.153,-2.591 4.215,-5.257 6.183,-7.992c25.866,-2.919 51.035,-10.281 74.396,-21.762c-7.596,24.418 -19.949,47.093 -36.346,66.717c-23.937,28.663 -55.658,49.805 -91.325,60.87c-35.665,11.081 -73.784,11.624 -109.75,1.563c-35.96,-10.071 -68.263,-30.306 -93.017,-58.267c-24.738,-27.975 -40.88,-62.507 -46.479,-99.429c-5.603,-36.924 -0.419,-74.693 14.925,-108.742c15.336,-34.048 40.186,-62.952 71.55,-83.22Zm287.809,185.304c-0.246,0.146 -0.505,0.275 -0.75,0.425c0.245,-0.146 0.504,-0.275 0.75,-0.425Z" style="fill:#24c8db;fill-rule:nonzero;"/></g></svg>