<?xml version="1.0" encoding="UTF-8" standalone="no"?>
<!DOCTYPE svg PUBLIC "-//W3C//DTD SVG 1.1//EN" "http://www.w3.org/Graphics/SVG/1.1/DTD/svg11.dtd">
<svg width="100%" height="100%" viewBox="0 0 120 120" version="1.1" xmlns="http://www.w3.org/2000/svg" xmlns:xlink="http://www.w3.org/1999/xlink" xml:space="preserve" xmlns:serif="http://www.serif.com/" style="fill-rule:evenodd;clip-rule:evenodd;stroke-linejoin:round;stroke-miterlimit:2;">
    <g transform="matrix(1,0,0,1,-12,-12)">
        <path d="M102.528,12.747C103.092,13.023 119.592,20.895 127.65,24.741C130.311,26.01 132,28.692 132,31.638L132,112.218C132,115.161 130.323,117.84 127.671,119.115C120.027,122.799 104.838,130.113 103.827,130.593C103.083,130.947 101.127,132 99.543,132C97.509,132 96.144,131.052 94.803,129.81L102,107.133L102,17.145L95.238,13.74C96.684,12.327 98.688,12 99.873,12C100.959,12 101.844,12.414 102.528,12.747Z" style="fill:url(#_Linear1);fill-rule:nonzero;"/>
    </g>
    <g transform="matrix(1,0,0,1,-12,-12)">
        <path d="M27,101.688L102,44.619L102,17.49C102,13.593 97.014,12.066 94.989,13.938C93.024,15.75 13.974,87.717 13.974,87.717C11.274,90.207 11.427,94.518 14.295,96.813C14.295,96.813 18.267,100.509 19.704,101.535C21.912,103.11 24.813,103.29 27,101.688Z" style="fill:url(#_Linear2);fill-rule:nonzero;"/>
    </g>
    <g transform="matrix(1,0,0,1,-12,-12)">
        <path d="M27,42.312L102,99.474L102,125.787C102,129.381 97.74,132.366 94.803,129.81L13.974,56.283C11.274,53.793 11.427,49.482 14.295,47.187C14.295,47.187 18.267,43.491 19.704,42.465C21.912,40.89 24.813,40.71 27,42.312Z" style="fill:rgb(2,136,209);fill-rule:nonzero;"/>
    </g>
    <defs>
        <linearGradient id="_Linear1" x1="0" y1="0" x2="1" y2="0" gradientUnits="userSpaceOnUse" gradientTransform="matrix(6.60391e-15,-107.85,107.85,6.60391e-15,113.4,130.11)"><stop offset="0" style="stop-color:rgb(41,182,246);stop-opacity:1"/><stop offset="1" style="stop-color:rgb(19,178,246);stop-opacity:1"/></linearGradient>
        <linearGradient id="_Linear2" x1="0" y1="0" x2="1" y2="0" gradientUnits="userSpaceOnUse" gradientTransform="matrix(86.124,-82.884,82.884,86.124,18.255,104.403)"><stop offset="0" style="stop-color:rgb(0,118,187);stop-opacity:1"/><stop offset="0.12" style="stop-color:rgb(0,118,187);stop-opacity:1"/><stop offset="0.26" style="stop-color:rgb(0,105,176);stop-opacity:1"/><stop offset="0.42" style="stop-color:rgb(0,105,176);stop-opacity:1"/><stop offset="0.49" style="stop-color:rgb(0,114,183);stop-opacity:1"/><stop offset="0.58" style="stop-color:rgb(0,118,187);stop-opacity:1"/><stop offset="0.8" style="stop-color:rgb(0,118,187);stop-opacity:1"/><stop offset="1" style="stop-color:rgb(0,110,185);stop-opacity:1"/></linearGradient>
    </defs>
</svg>
